name rise45.9887peak57.8056fall74.9286.mot
datacolumns 19
datarows 26
range 3.21999100000000 3.26165400000000
endheader
time	ground_force1_vx	ground_force1_vy	ground_force1_vz	ground_force1_px	ground_force1_py	ground_force1_pz	ground_force2_vx	ground_force2_vy	ground_force2_vz	ground_force2_px	ground_force2_py	ground_force2_pz	ground_torque1_x	ground_torque1_y	ground_torque1_z	ground_torque2_x	ground_torque2_y	ground_torque2_z	
3.21999100000000	-9.84568400000000	41.16048200000000	-8.48480000000000	0.29502600000000	0.00000000000000	0.08361900000000	-64.36640300000001	796.73689300000001	-46.94246100000000	0.11552900000000	0.00000000000000	-0.08296800000000	0.00000000000000	-5.01602000000000	0.00000000000000	0.00000000000000	-19.53757100000000	0.00000000000000	
3.22165400000000	-10.80459600000000	48.28951400000000	-9.56777400000000	0.30140800000000	0.00000000000000	0.08428700000000	-65.25342499999999	793.94816300000002	-46.51704600000000	0.11463600000000	0.00000000000000	-0.08286700000000	0.00000000000000	-5.75056200000000	0.00000000000000	0.00000000000000	-19.51731300000000	0.00000000000000	
3.22332300000000	-11.58072600000000	55.51986400000000	-10.56069700000000	0.30718700000000	0.00000000000000	0.08489800000000	-66.15247400000000	791.02805899999998	-46.06926400000000	0.11374600000000	0.00000000000000	-0.08276200000000	0.00000000000000	-6.44926300000000	0.00000000000000	0.00000000000000	-19.49812400000000	0.00000000000000	
3.22498900000000	-12.14799700000000	62.75907200000000	-11.44084500000000	0.31245900000000	0.00000000000000	0.08546100000000	-67.06252200000000	787.97425999999996	-45.59897500000000	0.11285900000000	0.00000000000000	-0.08265200000000	0.00000000000000	-7.09673000000000	0.00000000000000	0.00000000000000	-19.47988600000000	0.00000000000000	
3.22665800000000	-12.49126700000000	69.93682300000000	-12.19281900000000	0.31730000000000	0.00000000000000	0.08598200000000	-67.98243600000001	784.78441999999995	-45.10606200000000	0.11197500000000	0.00000000000000	-0.08253900000000	0.00000000000000	-7.68168800000000	0.00000000000000	0.00000000000000	-19.46245900000000	0.00000000000000	
3.22831900000000	-12.60614300000000	77.00715500000000	-12.80867500000000	0.32177000000000	0.00000000000000	0.08646700000000	-68.91097700000000	781.45617200000004	-44.59044100000000	0.11109500000000	0.00000000000000	-0.08242100000000	0.00000000000000	-8.19723000000000	0.00000000000000	0.00000000000000	-19.44568400000000	0.00000000000000	
3.22999100000000	-12.49795000000000	83.94829600000000	-13.28744100000000	0.32591900000000	0.00000000000000	0.08692100000000	-69.84679400000000	777.98713699999996	-44.05205300000000	0.11022000000000	0.00000000000000	-0.08229900000000	0.00000000000000	-8.64066700000000	0.00000000000000	0.00000000000000	-19.42938300000000	0.00000000000000	
3.23165600000000	-12.18008600000000	90.76053200000000	-13.63412800000000	0.32978900000000	0.00000000000000	0.08734700000000	-70.78843400000000	774.37493199999994	-43.49087800000000	0.10935000000000	0.00000000000000	-0.08217200000000	0.00000000000000	-9.01305600000000	0.00000000000000	0.00000000000000	-19.41335700000000	0.00000000000000	
3.23332000000000	-11.67198700000000	97.46263000000000	-13.85843800000000	0.33341400000000	0.00000000000000	0.08774900000000	-71.73433500000000	770.61717199999998	-42.90692600000000	0.10848600000000	0.00000000000000	-0.08204000000000	0.00000000000000	-9.31850600000000	0.00000000000000	0.00000000000000	-19.39739000000000	0.00000000000000	
3.23498600000000	-10.99695500000000	104.08735500000000	-13.97330600000000	0.33682100000000	0.00000000000000	0.08813000000000	-72.68283400000000	766.71148300000004	-42.30024800000000	0.10762800000000	0.00000000000000	-0.08190400000000	0.00000000000000	-9.56334100000000	0.00000000000000	0.00000000000000	-19.38124700000000	0.00000000000000	
3.23665700000000	-10.18004500000000	110.67662700000000	-13.99343400000000	0.34003700000000	0.00000000000000	0.08849200000000	-73.63216600000000	762.65551000000005	-41.67093200000000	0.10677800000000	0.00000000000000	-0.08176400000000	0.00000000000000	-9.75524200000000	0.00000000000000	0.00000000000000	-19.36467400000000	0.00000000000000	
3.23831900000000	-9.24616600000000	117.27675300000000	-13.93393400000000	0.34308000000000	0.00000000000000	0.08883600000000	-74.58046500000000	758.44692599999996	-41.01911100000000	0.10593500000000	0.00000000000000	-0.08161900000000	0.00000000000000	-9.90241300000000	0.00000000000000	0.00000000000000	-19.34740100000000	0.00000000000000	
3.23998800000000	-8.21852500000000	123.93411800000000	-13.80918200000000	0.34596800000000	0.00000000000000	0.08916400000000	-75.52577200000000	754.08344000000000	-40.34495800000000	0.10510100000000	0.00000000000000	-0.08146800000000	0.00000000000000	-10.01285800000000	0.00000000000000	0.00000000000000	-19.32913900000000	0.00000000000000	
3.24165400000000	-7.11746000000000	130.69159200000001	-13.63191400000000	0.34871700000000	0.00000000000000	0.08947700000000	-76.46603500000001	749.56281400000000	-39.64869500000000	0.10427500000000	0.00000000000000	-0.08131400000000	0.00000000000000	-10.09379300000000	0.00000000000000	0.00000000000000	-19.30958700000000	0.00000000000000	
3.24332200000000	-5.95969800000000	137.58579499999999	-13.41262000000000	0.35133800000000	0.00000000000000	0.08977800000000	-77.39911400000000	744.88286900000003	-38.93059200000000	0.10346000000000	0.00000000000000	-0.08115400000000	0.00000000000000	-10.15122400000000	0.00000000000000	0.00000000000000	-19.28842500000000	0.00000000000000	
3.24498700000000	-4.75801400000000	144.64529500000000	-13.15920200000000	0.35384300000000	0.00000000000000	0.09006600000000	-78.32278900000000	740.04150200000004	-38.19096600000000	0.10265600000000	0.00000000000000	-0.08098900000000	0.00000000000000	-10.18969400000000	0.00000000000000	0.00000000000000	-19.26532200000000	0.00000000000000	
3.24665300000000	-3.52124400000000	151.88969000000000	-12.87689700000000	0.35624100000000	0.00000000000000	0.09034200000000	-79.23476100000001	735.03669900000000	-37.43018800000000	0.10186200000000	0.00000000000000	-0.08081900000000	0.00000000000000	-10.21218300000000	0.00000000000000	0.00000000000000	-19.23993500000000	0.00000000000000	
3.24832500000000	-2.25458800000000	159.32949400000001	-12.56841300000000	0.35853900000000	0.00000000000000	0.09060800000000	-80.13265900000000	729.86654799999997	-36.64867800000000	0.10108200000000	0.00000000000000	-0.08064500000000	0.00000000000000	-10.22015000000000	0.00000000000000	0.00000000000000	-19.21190500000000	0.00000000000000	
3.24998600000000	-0.96013100000000	166.96669199999999	-12.23423100000000	0.36074600000000	0.00000000000000	0.09086400000000	-81.01404800000000	724.52925600000003	-35.84691300000000	0.10031400000000	0.00000000000000	-0.08046500000000	0.00000000000000	-10.21368000000000	0.00000000000000	0.00000000000000	-19.18086900000000	0.00000000000000	
3.25166500000000	0.36250200000000	174.79578400000000	-11.87301700000000	0.36286600000000	0.00000000000000	0.09111100000000	-81.87643600000000	719.02316699999994	-35.02542200000000	0.09956000000000	0.00000000000000	-0.08028000000000	0.00000000000000	-10.19171400000000	0.00000000000000	0.00000000000000	-19.14644900000000	0.00000000000000	
3.25331900000000	1.71542900000000	182.80516499999999	-11.48209900000000	0.36490500000000	0.00000000000000	0.09134900000000	-82.71727700000000	713.34677399999998	-34.18478900000000	0.09882000000000	0.00000000000000	-0.08009000000000	0.00000000000000	-10.15232700000000	0.00000000000000	0.00000000000000	-19.10826400000000	0.00000000000000	
3.25499000000000	3.10179800000000	190.97867500000001	-11.05796100000000	0.36686700000000	0.00000000000000	0.09157800000000	-83.53398500000000	707.49874299999999	-33.32565300000000	0.09809600000000	0.00000000000000	-0.07989500000000	0.00000000000000	-10.09301400000000	0.00000000000000	0.00000000000000	-19.06592600000000	0.00000000000000	
3.25665500000000	4.52512500000000	199.29716400000001	-10.59670700000000	0.36875500000000	0.00000000000000	0.09180000000000	-84.32393399999999	701.47792500000003	-32.44870900000000	0.09738700000000	0.00000000000000	-0.07969400000000	0.00000000000000	-10.01098600000000	0.00000000000000	0.00000000000000	-19.01904100000000	0.00000000000000	
3.25831900000000	5.98873000000000	207.73996199999999	-10.09447500000000	0.37057400000000	0.00000000000000	0.09201400000000	-85.08447500000000	695.28337299999998	-31.55470600000000	0.09669600000000	0.00000000000000	-0.07948800000000	0.00000000000000	-9.90342400000000	0.00000000000000	0.00000000000000	-18.96721400000000	0.00000000000000	
3.25998900000000	7.49529600000000	216.28616500000001	-9.54777700000000	0.37232400000000	0.00000000000000	0.09222100000000	-85.81293700000001	688.91436399999998	-30.64444700000000	0.09602100000000	0.00000000000000	-0.07927700000000	0.00000000000000	-9.76769900000000	0.00000000000000	0.00000000000000	-18.91004900000000	0.00000000000000	
3.26165400000000	9.04654000000000	224.91568000000001	-8.95375300000000	0.37400800000000	0.00000000000000	0.09242000000000	-86.50664000000000	682.37040600000000	-29.71878900000000	0.09536500000000	0.00000000000000	-0.07906100000000	0.00000000000000	-9.60154300000000	0.00000000000000	0.00000000000000	-18.84714900000000	0.00000000000000	
